<svg width="15495" height="2446" viewBox="0 0 15495 2446" fill="none" xmlns="http://www.w3.org/2000/svg">
<path d="M151.646 2384.43H116.236V2081.53H0.916016V2049.47H268.402V2081.53H151.646V2384.43Z" fill="#242424"/>
<path d="M497.073 2384.43H461.663V2049.47H497.073V2188.72H696.132V2049.47H731.542V2384.43H696.132V2220.78H497.073V2384.43Z" fill="#242424"/>
<path d="M1191.74 2384.43H954.882V2049.47H1184.57V2081.53H990.291V2188.72H1149.63V2220.78H990.291V2352.37H1191.74V2384.43Z" fill="#242424"/>
<path d="M1680.93 2384.43H1645.52V2049.47H1680.93V2188.72H1879.99V2049.47H1915.4V2384.43H1879.99V2220.78H1680.93V2384.43Z" fill="#242424"/>
<path d="M2176.54 2384.43H2141.13V2049.47H2176.54V2384.43Z" fill="#242424"/>
<path d="M2559.47 2390.17C2511.3 2390.17 2470.63 2373.9 2437.45 2341.36C2404.91 2308.82 2388.64 2267.35 2388.64 2216.95C2388.64 2166.86 2404.91 2125.55 2437.45 2093.01C2470.31 2060.16 2511.3 2043.73 2560.43 2043.73C2602.85 2043.73 2638.26 2054.41 2666.65 2075.79V2111.68C2635.71 2088.39 2600.94 2076.74 2562.34 2076.74C2523.1 2076.74 2490.24 2089.98 2463.77 2116.46C2437.61 2142.62 2424.53 2176.27 2424.53 2217.43C2424.53 2257.94 2437.45 2291.44 2463.29 2317.91C2489.45 2344.07 2521.51 2357.15 2559.47 2357.15C2599.66 2357.15 2631.4 2345.51 2654.69 2322.22V2192.07H2689.62V2336.1C2674.95 2352.68 2656.13 2365.92 2633.16 2375.81C2610.51 2385.38 2585.95 2390.17 2559.47 2390.17Z" fill="#242424"/>
<path d="M2940.49 2384.43H2905.08V2049.47H2940.49V2188.72H3139.55V2049.47H3174.96V2384.43H3139.55V2220.78H2940.49V2384.43Z" fill="#242424"/>
<path d="M3976.66 2216.95C3976.66 2255.55 3966.29 2289.84 3945.56 2319.83C3925.14 2349.49 3897.71 2370.07 3863.25 2381.55C3883.99 2401.97 3904.72 2412.18 3925.46 2412.18C3940.77 2412.18 3954.01 2408.51 3965.18 2401.17V2435.63C3951.78 2442.01 3937.1 2445.2 3921.15 2445.2C3908.71 2445.2 3896.43 2442.17 3884.31 2436.1C3872.5 2430.36 3862.46 2424.14 3854.16 2417.44C3848.42 2412.98 3838.21 2403.73 3823.54 2389.69C3821.3 2390.01 3816.2 2390.17 3808.23 2390.17C3759.74 2390.17 3719.54 2373.74 3687.64 2340.88C3655.74 2308.02 3639.79 2266.71 3639.79 2216.95C3639.79 2167.5 3655.74 2126.35 3687.64 2093.49C3719.86 2060.32 3760.06 2043.73 3808.23 2043.73C3856.08 2043.73 3896.11 2060.32 3928.33 2093.49C3960.55 2126.67 3976.66 2167.82 3976.66 2216.95ZM3713.96 2316.96C3739.16 2343.75 3770.58 2357.15 3808.23 2357.15C3845.87 2357.15 3877.29 2343.75 3902.49 2316.96C3928.01 2289.84 3940.77 2256.5 3940.77 2216.95C3940.77 2177.39 3928.01 2144.05 3902.49 2116.94C3877.29 2090.14 3845.87 2076.74 3808.23 2076.74C3770.58 2076.74 3739.16 2090.14 3713.96 2116.94C3688.44 2144.05 3675.68 2177.39 3675.68 2216.95C3675.68 2256.5 3688.44 2289.84 3713.96 2316.96Z" fill="#242424"/>
<path d="M4318.66 2390.17C4277.83 2390.17 4244.81 2377.25 4219.61 2351.41C4194.41 2325.89 4181.81 2289.36 4181.81 2241.83V2049.47H4217.22V2242.31C4217.22 2278.36 4226.15 2306.59 4244.02 2327C4262.2 2347.1 4287.08 2357.15 4318.66 2357.15C4350.24 2357.15 4374.97 2347.1 4392.83 2327C4411.01 2306.59 4420.11 2278.36 4420.11 2242.31V2049.47H4455.52V2241.83C4455.52 2288.72 4442.76 2325.25 4417.23 2351.41C4391.71 2377.25 4358.86 2390.17 4318.66 2390.17Z" fill="#242424"/>
<path d="M4678.04 2384.43H4641.2L4790.49 2047.56H4823.51L4973.28 2384.43H4935.96L4894.33 2292.07H4718.72L4678.04 2384.43ZM4806.76 2092.06L4730.68 2260.97H4882.85L4806.76 2092.06Z" fill="#242424"/>
<path d="M5386.2 2384.43H5163.7V2049.47H5199.11V2352.37H5386.2V2384.43Z" fill="#242424"/>
<path d="M5616.21 2384.43H5580.8V2049.47H5616.21V2384.43Z" fill="#242424"/>
<path d="M5962.77 2384.43H5927.36V2081.53H5812.04V2049.47H6079.53V2081.53H5962.77V2384.43Z" fill="#242424"/>
<path d="M6401.99 2384.43H6366.58V2230.82L6236.42 2049.47H6277.57L6384.76 2197.81L6491.94 2049.47H6532.14L6401.99 2230.35V2384.43Z" fill="#242424"/>
<path d="M7009.08 2093.49C7041.3 2060.32 7081.5 2043.73 7129.67 2043.73C7177.52 2043.73 7217.55 2060.32 7249.77 2093.49C7281.99 2126.67 7298.1 2167.82 7298.1 2216.95C7298.1 2266.39 7281.99 2307.7 7249.77 2340.88C7217.87 2373.74 7177.84 2390.17 7129.67 2390.17C7081.18 2390.17 7040.99 2373.74 7009.08 2340.88C6977.18 2308.02 6961.23 2266.71 6961.23 2216.95C6961.23 2167.5 6977.18 2126.35 7009.08 2093.49ZM7035.4 2316.96C7060.6 2343.75 7092.03 2357.15 7129.67 2357.15C7167.31 2357.15 7198.73 2343.75 7223.93 2316.96C7249.46 2289.84 7262.22 2256.5 7262.22 2216.95C7262.22 2177.39 7249.46 2144.05 7223.93 2116.94C7198.73 2090.14 7167.31 2076.74 7129.67 2076.74C7092.03 2076.74 7060.6 2090.14 7035.4 2116.94C7009.88 2144.05 6997.12 2177.39 6997.12 2216.95C6997.12 2256.5 7009.88 2289.84 7035.4 2316.96Z" fill="#242424"/>
<path d="M7543.93 2384.43H7508.52V2049.47H7736.77V2081.53H7543.93V2193.02H7700.4V2225.08H7543.93V2384.43Z" fill="#242424"/>
<path d="M8194.57 2384.43H8157.73L8307.02 2047.56H8340.04L8489.81 2384.43H8452.49L8410.86 2292.07H8235.25L8194.57 2384.43ZM8323.29 2092.06L8247.21 2260.97H8399.38L8323.29 2092.06Z" fill="#242424"/>
<path d="M8714.68 2384.43H8680.23V2049.47H8710.85L8922.35 2323.18V2049.47H8956.8V2384.43H8926.66L8714.68 2109.76V2384.43Z" fill="#242424"/>
<path d="M9309.65 2384.43H9274.24V2230.82L9144.09 2049.47H9185.24L9292.42 2197.81L9399.61 2049.47H9439.8L9309.65 2230.35V2384.43Z" fill="#242424"/>
<path d="M10001 2386.34H9969.87L9854.07 2049.47H9893.3L9986.61 2328.44L10073.2 2048.03H10101.9L10189 2328.44L10281.9 2049.47H10320.1L10204.8 2386.34H10173.7L10087.6 2109.76L10001 2386.34Z" fill="#242424"/>
<path d="M10752.6 2384.43H10515.7V2049.47H10745.4V2081.53H10551.1V2188.72H10710.5V2220.78H10551.1V2352.37H10752.6V2384.43Z" fill="#242424"/>
<path d="M11110.8 2384.43H10951V2049.47H11096C11125.6 2049.47 11149.1 2056.81 11166.3 2071.48C11183.5 2085.84 11192.2 2105.61 11192.2 2130.82C11192.2 2148.04 11188.2 2162.88 11180.2 2175.32C11172.5 2187.76 11161.9 2196.53 11148.1 2201.64C11170.5 2205.14 11188.2 2214.87 11201.2 2230.82C11214.3 2246.77 11220.9 2266.87 11220.9 2291.12C11220.9 2319.51 11211 2342.16 11191.2 2359.06C11171.4 2375.97 11144.6 2384.43 11110.8 2384.43ZM10986.4 2222.21V2352.37H11104.6C11129.5 2352.37 11148.8 2346.62 11162.5 2335.14C11176.2 2323.65 11183.1 2307.55 11183.1 2286.81C11183.1 2266.39 11176.2 2250.6 11162.5 2239.44C11148.8 2227.95 11129.5 2222.21 11104.6 2222.21H10986.4ZM10986.4 2081.53V2191.11H11090.2C11111.6 2191.11 11128 2186.48 11139.5 2177.23C11151.3 2167.98 11157.2 2154.58 11157.2 2137.04C11157.2 2119.17 11151.3 2105.46 11139.5 2095.88C11128 2086.31 11111.6 2081.53 11090.2 2081.53H10986.4Z" fill="#242424"/>
<path d="M11782.3 2390.17C11758 2390.17 11734.8 2386.98 11712.4 2380.6C11690.4 2373.9 11672.4 2365.28 11658.3 2354.76V2315.04C11671.7 2326.53 11689.1 2336.41 11710.5 2344.71C11733.5 2353 11756.6 2357.15 11779.9 2357.15C11806.4 2357.15 11828.1 2351.41 11845 2339.92C11861.9 2328.44 11870.3 2313.13 11870.3 2293.99C11872.2 2276.12 11863 2260.97 11842.6 2248.53C11838.4 2245.34 11831.7 2242.15 11822.5 2238.96L11801.4 2231.78C11800.5 2231.46 11798.6 2230.98 11795.7 2230.35C11792.8 2229.39 11789.6 2228.43 11786.1 2227.47C11782.9 2226.2 11779.6 2225.08 11776.1 2224.13C11756.3 2218.38 11744.5 2214.87 11740.7 2213.6C11730.4 2210.09 11720.6 2206.1 11711 2201.64C11700.5 2196.53 11692.2 2190.95 11686.1 2184.89C11672.1 2170.21 11665 2152.03 11665 2130.34C11665 2105.14 11675.3 2084.4 11695.7 2068.13C11716.1 2051.86 11744.5 2043.73 11780.8 2043.73C11821 2043.73 11855.8 2052.98 11885.2 2071.48V2107.85C11852 2087.11 11817.5 2076.74 11781.8 2076.74C11756 2076.74 11736 2081.85 11722 2092.06C11708 2102.27 11700.9 2115.34 11700.9 2131.29C11699 2144.05 11706.2 2156.66 11722.5 2169.1C11725 2171.33 11730.3 2173.88 11738.3 2176.75L11754.5 2182.97L11775.1 2188.72L11795.2 2194.46C11812.7 2199.88 11823.8 2203.39 11828.2 2204.98C11837.5 2208.17 11847.2 2212.48 11857.4 2217.9C11867.9 2223.33 11876.5 2229.39 11883.2 2236.09C11898.9 2250.44 11906.7 2269.58 11906.7 2293.51C11906.7 2323.5 11894.6 2347.1 11870.3 2364.33C11846.4 2381.55 11817.1 2390.17 11782.3 2390.17Z" fill="#242424"/>
<path d="M12141.7 2093.49C12173.9 2060.32 12214.1 2043.73 12262.3 2043.73C12310.2 2043.73 12350.2 2060.32 12382.4 2093.49C12414.6 2126.67 12430.7 2167.82 12430.7 2216.95C12430.7 2266.39 12414.6 2307.7 12382.4 2340.88C12350.5 2373.74 12310.5 2390.17 12262.3 2390.17C12213.8 2390.17 12173.6 2373.74 12141.7 2340.88C12109.8 2308.02 12093.9 2266.71 12093.9 2216.95C12093.9 2167.5 12109.8 2126.35 12141.7 2093.49ZM12168 2316.96C12193.2 2343.75 12224.7 2357.15 12262.3 2357.15C12299.9 2357.15 12331.4 2343.75 12356.6 2316.96C12382.1 2289.84 12394.8 2256.5 12394.8 2216.95C12394.8 2177.39 12382.1 2144.05 12356.6 2116.94C12331.4 2090.14 12299.9 2076.74 12262.3 2076.74C12224.7 2076.74 12193.2 2090.14 12168 2116.94C12142.5 2144.05 12129.8 2177.39 12129.8 2216.95C12129.8 2256.5 12142.5 2289.84 12168 2316.96Z" fill="#242424"/>
<path d="M12863.7 2384.43H12641.2V2049.47H12676.6V2352.37H12863.7V2384.43Z" fill="#242424"/>
<path d="M13187.5 2390.17C13146.6 2390.17 13113.6 2377.25 13088.4 2351.41C13063.2 2325.89 13050.6 2289.36 13050.6 2241.83V2049.47H13086V2242.31C13086 2278.36 13094.9 2306.59 13112.8 2327C13131 2347.1 13155.9 2357.15 13187.5 2357.15C13219 2357.15 13243.8 2347.1 13261.6 2327C13279.8 2306.59 13288.9 2278.36 13288.9 2242.31V2049.47H13324.3V2241.83C13324.3 2288.72 13311.5 2325.25 13286 2351.41C13260.5 2377.25 13227.6 2390.17 13187.5 2390.17Z" fill="#242424"/>
<path d="M13663.6 2384.43H13628.2V2081.53H13512.9V2049.47H13780.3V2081.53H13663.6V2384.43Z" fill="#242424"/>
<path d="M14011.4 2384.43H13976V2049.47H14011.4V2384.43Z" fill="#242424"/>
<path d="M14271.4 2093.49C14303.6 2060.32 14343.8 2043.73 14391.9 2043.73C14439.8 2043.73 14479.8 2060.32 14512 2093.49C14544.3 2126.67 14560.4 2167.82 14560.4 2216.95C14560.4 2266.39 14544.3 2307.7 14512 2340.88C14480.1 2373.74 14440.1 2390.17 14391.9 2390.17C14343.5 2390.17 14303.3 2373.74 14271.4 2340.88C14239.5 2308.02 14223.5 2266.71 14223.5 2216.95C14223.5 2167.5 14239.5 2126.35 14271.4 2093.49ZM14297.7 2316.96C14322.9 2343.75 14354.3 2357.15 14391.9 2357.15C14429.6 2357.15 14461 2343.75 14486.2 2316.96C14511.7 2289.84 14524.5 2256.5 14524.5 2216.95C14524.5 2177.39 14511.7 2144.05 14486.2 2116.94C14461 2090.14 14429.6 2076.74 14391.9 2076.74C14354.3 2076.74 14322.9 2090.14 14297.7 2116.94C14272.2 2144.05 14259.4 2177.39 14259.4 2216.95C14259.4 2256.5 14272.2 2289.84 14297.7 2316.96Z" fill="#242424"/>
<path d="M14805.2 2384.43H14770.8V2049.47H14801.4L15012.9 2323.18V2049.47H15047.4V2384.43H15017.2L14805.2 2109.76V2384.43Z" fill="#242424"/>
<path d="M15370.6 2390.17C15346.3 2390.17 15323 2386.98 15300.7 2380.6C15278.7 2373.9 15260.7 2365.28 15246.6 2354.76V2315.04C15260 2326.53 15277.4 2336.41 15298.8 2344.71C15321.7 2353 15344.9 2357.15 15368.2 2357.15C15394.6 2357.15 15416.3 2351.41 15433.2 2339.92C15450.1 2328.44 15458.6 2313.13 15458.6 2293.99C15460.5 2276.12 15451.3 2260.97 15430.8 2248.53C15426.7 2245.34 15420 2242.15 15410.7 2238.96L15389.7 2231.78C15388.7 2231.46 15386.8 2230.98 15383.9 2230.35C15381.1 2229.39 15377.9 2228.43 15374.4 2227.47C15371.2 2226.2 15367.8 2225.08 15364.3 2224.13C15344.6 2218.38 15332.7 2214.87 15328.9 2213.6C15318.7 2210.09 15308.8 2206.1 15299.3 2201.64C15288.7 2196.53 15280.4 2190.95 15274.4 2184.89C15260.3 2170.21 15253.3 2152.03 15253.3 2130.34C15253.3 2105.14 15263.5 2084.4 15283.9 2068.13C15304.4 2051.86 15332.7 2043.73 15369.1 2043.73C15409.3 2043.73 15444.1 2052.98 15473.4 2071.48V2107.85C15440.3 2087.11 15405.8 2076.74 15370.1 2076.74C15344.2 2076.74 15324.3 2081.85 15310.3 2092.06C15296.2 2102.27 15289.2 2115.34 15289.2 2131.29C15287.3 2144.05 15294.5 2156.66 15310.7 2169.1C15313.3 2171.33 15318.6 2173.88 15326.5 2176.75L15342.8 2182.97L15363.4 2188.72L15383.5 2194.46C15401 2199.88 15412 2203.39 15416.5 2204.98C15425.7 2208.17 15435.5 2212.48 15445.7 2217.9C15456.2 2223.33 15464.8 2229.39 15471.5 2236.09C15487.1 2250.44 15495 2269.58 15495 2293.51C15495 2323.5 15482.8 2347.1 15458.6 2364.33C15434.7 2381.55 15405.3 2390.17 15370.6 2390.17Z" fill="#242424"/>
<path d="M1715.42 63.8223V1845.46L1502.13 1635.61V296.286H1438.68L1215.19 63.8223H1715.42Z" fill="#232323"/>
<path d="M1439.73 296.102V1634.35H1509.04L1715.42 1845.46H1215.19V63.8223L1439.73 296.102Z" fill="#404040"/>
<path d="M1072.26 63.8223V562.681H0.351562L224.862 333.187H842.984V290.425L1072.26 63.8223Z" fill="#232323"/>
<path d="M1074.22 63.8223L845.04 292.118H230.968V332.738L0.351562 562.681L2.30557 63.8223H1074.22Z" fill="#404040"/>
<path d="M1072.26 705.214V1204.07H0.351562L224.862 974.579H842.984V931.816L1072.26 705.214Z" fill="#232323"/>
<path d="M1074.22 705.214L845.04 933.51H230.968V974.13L0.351562 1204.07L2.30557 705.214H1074.22Z" fill="#404040"/>
<path d="M1072.26 1346.6V1845.46H0.351562L224.862 1615.97H842.984V1573.2L1072.26 1346.6Z" fill="#232323"/>
<path d="M1074.22 1346.6L845.04 1574.9H230.968V1615.52L0.351562 1845.46L2.30557 1346.6H1074.22Z" fill="#404040"/>
<path d="M2227.13 1587.2C2035.77 1414.57 1940.7 1194.87 1940.7 923.249C1940.7 651.631 2038.21 429.508 2229.57 259.294C2420.92 86.6661 2664.69 0.955078 2958.43 0.955078C3037.66 0.955078 3112.01 5.78393 3175.38 19.063C3238.77 31.1349 3289.96 44.414 3324.08 56.486C3359.43 68.5578 3405.75 86.6661 3464.25 112.016V610.587C2984.03 364.32 2490.4 527.29 2505.02 929.285C2505.02 1068.11 2546.46 1175.55 2630.56 1254.02C2714.66 1332.49 2814.61 1371.12 2935.27 1371.12C3027.91 1371.12 3098.6 1353.01 3147.35 1320.41V775.972H3699.49V1573.92C3630.01 1647.56 3525.2 1712.75 3385.02 1765.87C3244.86 1818.99 3096.16 1844.34 2935.27 1844.34C2654.94 1845.54 2419.71 1758.62 2227.13 1587.2Z" fill="#232323"/>
<path d="M5656.95 1809.33H5014.61L4539.27 1175.55H4462.49V1809.33H3912.79V37.1709H4776.95C4979.27 37.1709 5142.6 90.287 5265.7 198.934C5388.8 305.168 5449.75 441.58 5449.75 606.965C5449.75 830.296 5326.64 1015 5121.87 1116.4L5656.95 1809.33ZM4713.56 778.386C4815.95 778.386 4885.42 722.855 4885.42 633.524C4885.42 544.191 4815.95 491.075 4713.56 491.075H4462.49V777.179H4713.56V778.386Z" fill="#232323"/>
<path d="M5769.07 1809.33L6505.26 26.3066H7029.36L7767.98 1809.33H7176.84L7048.86 1477.35H6466.26L6335.84 1809.33H5769.07ZM6625.92 1070.52H6890.41L6760 650.425L6625.92 1070.52Z" fill="#232323"/>
<path d="M7852.08 37.1709H8396.94L8788.18 667.325L9181.79 37.1709H9724.21V1810.53H9197.72V817.018L8944.2 1239.53H8647.99L8384.7 817.018V1810.53H7852.08V37.1709Z" fill="#232323"/>
<path d="M9913.17 37.1709H10458L10849.2 668.533L11242.9 37.1709H11785.3V1810.53H11258.8V817.018L11005.2 1239.53H10709L10445.8 817.018V1810.53H9913.17V37.1709Z" fill="#232323"/>
<path d="M12002.2 37.1709H12552V1342.15H13364.9V1810.53H12002.2V37.1709Z" fill="#232323"/>
<path d="M13473.4 1809.33L14209.6 26.3066H14733.6L15472.3 1809.33H14881.1L14753.2 1477.35H14170.5L14040.1 1809.33H13473.4ZM14330.2 1070.52H14593.5L14463.1 650.425L14330.2 1070.52Z" fill="#232323"/>
</svg>
