<svg width="70" height="87" viewBox="0 0 70 87" fill="none" xmlns="http://www.w3.org/2000/svg">
<path d="M12.3883 16.6144H8.8527L3.1793 9.69171H2.87781V16.6144H0V0.0553805H2.87781V6.95034H3.15189C3.80968 6.175 4.76895 5.012 6.0297 3.46132C7.29046 1.91065 8.22232 0.775337 8.82529 0.0553805H12.3609L5.53636 8.30718C5.82871 8.65793 6.8428 9.89477 8.57862 12.0177C10.3327 14.1407 11.6026 15.6729 12.3883 16.6144Z" fill="#EC1B23"/>
<path d="M24.6961 11.9623H17.2686V13.0977L17.296 13.2361C17.4239 13.4392 17.5975 13.6422 17.8167 13.8453C18.0543 14.0299 18.237 14.1222 18.3649 14.1222H21.0234C21.2975 14.1222 21.6356 13.8822 22.0375 13.4022L22.1198 13.2915L24.6687 14.0668C24.5408 14.3807 24.2758 14.7591 23.8739 15.2021C23.4901 15.6267 23.1704 15.9313 22.9146 16.1159C22.2933 16.5405 21.6356 16.7528 20.9412 16.7528H18.3649C17.5792 16.7528 16.9123 16.559 16.3641 16.1713C15.8525 15.7836 15.414 15.3406 15.0486 14.8422C14.7014 14.3622 14.5278 13.7899 14.5278 13.1253V8.14104C14.5278 7.49492 14.7014 6.93188 15.0486 6.45191C15.414 5.95348 15.8525 5.51043 16.3641 5.12276C16.9306 4.71663 17.5975 4.51357 18.3649 4.51357H20.8864C21.6538 4.51357 22.3207 4.71663 22.8872 5.12276C23.4536 5.54735 23.8921 5.9904 24.2027 6.45191C24.5316 6.89496 24.6961 7.458 24.6961 8.14104V11.9623ZM21.9553 9.49788V8.19642C21.9553 8.10412 21.9462 8.04873 21.9279 8.03027C21.7269 7.69799 21.4254 7.41185 21.0234 7.17186C20.9869 7.1534 20.9321 7.14417 20.859 7.14417H18.3649C18.237 7.14417 18.0543 7.24571 17.8167 7.44877C17.5975 7.63337 17.4239 7.82721 17.296 8.03027L17.2686 8.19642V9.49788H21.9553Z" fill="#EC1B23"/>
<path d="M38.1094 16.6144H35.3686V8.19642C35.3686 8.12258 35.3595 8.06719 35.3412 8.03027C35.1768 7.71645 34.8935 7.43031 34.4916 7.17186C34.4733 7.1534 34.4002 7.14417 34.2723 7.14417H32.3538C31.9701 7.14417 31.431 7.52261 30.7367 8.27949V16.6144H27.9959V7.11648L27.7219 4.65202H30.4078L30.5449 5.2889C31.2575 4.77201 31.833 4.51357 32.2715 4.51357H34.2997C35.0671 4.51357 35.7341 4.71663 36.3005 5.12276C36.8669 5.54735 37.3054 5.9904 37.616 6.45191C37.9449 6.89496 38.1094 7.458 38.1094 8.14104V16.6144Z" fill="#EC1B23"/>
<path d="M50.775 16.6144H41.3467V14.3714L46.8009 7.28263H41.1274V4.65202H50.5009V6.92265L45.0193 13.9838H50.775V16.6144Z" fill="#EC1B23"/>
<path d="M60.8428 16.6144V8.22411L60.8154 8.08565C60.5962 7.71645 60.3038 7.41185 59.9384 7.17186C59.9201 7.1534 59.8653 7.14417 59.7739 7.14417H57.8828C57.7183 7.14417 57.4443 7.29186 57.0606 7.58722C56.6768 7.88259 56.3936 8.15027 56.2109 8.39025V16.6144H53.4701V0.0553805H56.2109V5.17814C56.8322 4.73509 57.3712 4.51357 57.828 4.51357H59.8013C60.5687 4.51357 61.2265 4.71663 61.7747 5.12276C62.2315 5.43659 62.67 5.88887 63.0903 6.4796C63.4192 6.95957 63.5836 7.52261 63.5836 8.16873V16.6144H60.8428Z" fill="#EC1B23"/>
<path d="M69.897 2.96289H66.9644V0H69.897V2.96289ZM69.8148 16.6144H67.074V4.65202H69.8148V16.6144Z" fill="#EC1B23"/>
<path d="M28.4454 76.5935C28.9213 76.5935 29.6012 76.1813 30.4851 75.3571C31.3689 74.5328 32.0488 73.7085 32.5247 72.8842C32.5927 72.7468 32.6267 72.5064 32.6267 72.163V57.0169H45.8844V67.5264H43.0289V72.9873C43.0289 75.3914 42.417 77.4521 41.1932 79.1694C40.7173 79.8563 39.8674 80.8179 38.6436 82.0543C37.4198 83.2907 36.468 84.1494 35.7881 84.6302C33.7485 86.1414 31.3009 86.897 28.4454 86.897H22.7344V87H14.5758C11.9243 87 9.54469 86.2444 7.43706 84.7332C6.75718 84.2524 5.77135 83.3594 4.47957 82.0543C3.25578 80.7492 2.40593 79.7532 1.93001 79.0663C0.706228 77.2117 0.0943339 75.1167 0.0943339 72.7812V64.7445C0.0943339 61.6534 1.4541 58.7341 4.17363 55.9865C1.4541 53.2389 0.0943339 50.2853 0.0943339 47.1255V38.7797C0.0943339 36.4443 0.706228 34.3492 1.93001 32.4946C2.40593 31.8077 3.25578 30.8117 4.47957 29.5066C5.77135 28.2015 6.75718 27.3085 7.43706 26.8277C9.54469 25.3165 11.9243 24.5609 14.5758 24.5609H24.5701C28.9893 24.5609 33.3406 27.3772 37.6238 33.0098C38.9156 34.7957 39.7654 36.2725 40.1734 37.4403L29.7712 40.2222C27.9355 37.4746 26.2698 35.723 24.774 34.9674C24.6381 34.8987 24.4681 34.8644 24.2641 34.8644H14.6778C14.2699 34.8644 13.658 35.2422 12.8421 35.9978C12.0263 36.7534 11.3804 37.5433 10.9045 38.3676C10.8365 38.505 10.8025 38.6767 10.8025 38.8827V46.9195C10.8025 47.1255 10.8365 47.2973 10.9045 47.4346C11.3124 48.1902 11.8903 48.9458 12.6382 49.7014C13.454 50.457 14.0999 50.8348 14.5758 50.8348H27.6296V61.0352H14.5758C14.0999 61.0352 13.454 61.413 12.6382 62.1686C11.8903 62.9242 11.3124 63.6798 10.9045 64.4354L10.8025 64.9506V72.6782L10.9045 73.1933C11.3804 74.0176 11.9923 74.8075 12.7401 75.5631C13.556 76.25 14.2019 76.5935 14.6778 76.5935H28.4454Z" fill="#EC1B23"/>
<path d="M65.9711 73.6712C66.6106 73.6712 67.1313 73.8188 67.5333 74.1142C67.8074 74.2988 68.1728 74.6126 68.6296 75.0557C69.0681 75.4987 69.3605 75.8587 69.5067 76.1356C69.8355 76.7264 70 77.2986 70 77.8524V82.6706C70 83.8705 69.2417 85.0428 67.7252 86.1873C67.579 86.2981 67.2958 86.4642 66.8755 86.6857L65.9711 83.9444C66.4827 83.5752 66.9029 83.169 67.2318 82.726C67.2501 82.6891 67.2592 82.6245 67.2592 82.5322V77.9909L67.2318 77.8247C67.1222 77.6217 66.9121 77.3632 66.6014 77.0494C66.2908 76.7356 66.0807 76.5787 65.9711 76.5787H64.354C64.0799 76.5787 63.9246 76.6894 63.8881 76.911L61.8599 84.1105C61.6772 84.7936 61.3026 85.3289 60.7362 85.7166C60.1698 86.0858 59.5485 86.2704 58.8725 86.2704H57.3924C56.7529 86.2704 56.2322 86.1319 55.8302 85.855C55.5744 85.6704 55.2272 85.3566 54.7887 84.9135C54.3319 84.452 54.0213 84.0828 53.8568 83.8059C53.5279 83.2152 53.3635 82.6429 53.3635 82.0891V77.9909C53.3635 76.8094 54.1218 75.6372 55.6383 74.4742C55.8942 74.2896 56.2139 74.105 56.5976 73.9204L57.3924 76.7171C56.7895 77.1417 56.3692 77.5478 56.1317 77.9355C56.1134 77.954 56.1043 78.0093 56.1043 78.1017V82.006L56.1317 82.1722C56.2413 82.3937 56.4423 82.6521 56.7347 82.9475C57.027 83.2244 57.228 83.3629 57.3376 83.3629H58.708C58.9821 83.3629 59.1374 83.2613 59.1739 83.0583L61.2569 75.831C61.4396 75.1664 61.8234 74.6403 62.4081 74.2527C62.9745 73.865 63.5866 73.6712 64.2444 73.6712H65.9711Z" fill="#EC1B23"/>
<path d="M66.4096 60.0948C67.1039 60.0948 67.6612 60.2517 68.0815 60.5655C68.5748 60.8978 69.0225 61.3408 69.4244 61.8946C69.8081 62.4485 70 63.1223 70 63.9161V66.519C70 67.2943 69.8081 67.9589 69.4244 68.5127C69.2783 68.7158 69.059 68.965 68.7667 69.2603C68.4743 69.5557 68.2459 69.7588 68.0815 69.8695C67.6612 70.1834 67.1039 70.3403 66.4096 70.3403H61.4762C60.7819 70.3403 60.2246 70.1834 59.8043 69.8695C59.3658 69.5742 58.9273 69.1219 58.4887 68.5127C58.0868 67.9404 57.8858 67.2759 57.8858 66.519V63.9161C57.8858 63.1407 58.0868 62.4669 58.4887 61.8946C58.909 61.3224 59.3475 60.8793 59.8043 60.5655C60.2246 60.2517 60.7819 60.0948 61.4762 60.0948L66.4096 60.0948ZM61.5584 67.5712H66.5466C66.7476 67.5712 67.0217 67.2666 67.3689 66.6574C67.3871 66.6205 67.3963 66.5651 67.3963 66.4913V63.9438C67.3963 63.9068 67.378 63.8514 67.3414 63.7776C67.0126 63.1869 66.7476 62.8823 66.5466 62.8638H61.5584C61.5036 62.8638 61.4488 62.873 61.394 62.8915C61.0285 63.113 60.7362 63.4176 60.5169 63.8053C60.4986 63.8422 60.4895 63.8884 60.4895 63.9438V66.4913C60.4895 66.5467 60.4986 66.5928 60.5169 66.6297C60.7545 67.0359 61.0468 67.3405 61.394 67.5435L61.5584 67.5712Z" fill="#EC1B23"/>
<path d="M69.863 46.5424V49.3114H61.531C61.4579 49.3114 61.4031 49.3207 61.3666 49.3391C61.0559 49.5053 60.7727 49.7914 60.5169 50.1975C60.4986 50.216 60.4895 50.2898 60.4895 50.4191V52.3574C60.4895 52.7451 60.8641 53.2897 61.6132 53.9911H69.863V56.7602H60.4621L58.0228 57.0371V54.3234L58.6532 54.185C58.1416 53.465 57.8858 52.8835 57.8858 52.4405V50.3914C57.8858 49.616 58.0868 48.9422 58.4887 48.37C58.909 47.7977 59.3475 47.3546 59.8043 47.0408C60.2428 46.7085 60.8001 46.5424 61.4762 46.5424H69.863Z" fill="#EC1B23"/>
<path d="M66.6563 41.1948C67.113 40.7887 67.3597 40.4472 67.3963 40.1703V36.9582C67.3963 36.792 67.2775 36.589 67.04 36.349C66.8024 36.0905 66.5923 35.9613 66.4096 35.9613H65.7518C65.5143 35.9613 65.3864 36.0813 65.3681 36.3213C65.3498 36.5613 65.3041 37.2351 65.231 38.3427C65.1397 39.4319 65.0666 40.2718 65.0118 40.8626C64.957 41.6379 64.692 42.2655 64.217 42.7455C63.7236 43.2255 63.0567 43.4655 62.2162 43.4655H61.394C60.7362 43.4655 60.1789 43.2993 59.7221 42.967C58.4979 42.0994 57.8858 41.0287 57.8858 39.7549V37.0966C57.8858 36.3951 58.0959 35.7306 58.5162 35.1029C58.7354 34.7891 59.046 34.4476 59.448 34.0784C59.8317 33.7092 60.1972 33.4507 60.5443 33.303L61.3117 35.9059C61.2752 35.9244 61.2387 35.9521 61.2021 35.989C60.727 36.3951 60.4895 36.7367 60.4895 37.0136V39.6719C60.4895 39.838 60.5078 39.958 60.5443 40.0318C60.6722 40.2903 60.8824 40.5026 61.1747 40.6687C61.2112 40.6872 61.3026 40.6964 61.4488 40.6964H62.1066C62.1614 40.6964 62.2345 40.6595 62.3258 40.5857C62.3989 40.5118 62.4446 40.4103 62.4629 40.2811C62.4811 40.078 62.5451 39.4411 62.6547 38.3704C62.7461 37.2997 62.8192 36.4874 62.874 35.9336C62.9653 35.1214 63.2486 34.466 63.7236 33.9676C64.1804 33.4507 64.8382 33.1923 65.697 33.1923H66.4644C67.1039 33.1923 67.6612 33.3676 68.1363 33.7184C68.6479 34.0691 69.0681 34.4845 69.397 34.9645C69.799 35.5367 70 36.1921 70 36.9305V40.0872C70 40.7703 69.7807 41.4348 69.3422 42.0809C69.123 42.3948 68.8215 42.7363 68.4378 43.1055C68.0358 43.4562 67.6612 43.7055 67.314 43.8531L66.5466 41.2779L66.6563 41.1948Z" fill="#EC1B23"/>
</svg>
