<svg width="62" height="50" viewBox="0 0 62 50" fill="none" xmlns="http://www.w3.org/2000/svg">
<path d="M10.1307 10.3024H8.95695L6.89588 3.51046C6.79806 3.20983 6.6886 2.83057 6.5675 2.37268C6.4464 1.9148 6.38352 1.6396 6.37886 1.5471C6.27639 2.15761 6.11336 2.82594 5.88979 3.55209L3.89159 10.3024H2.71783L0 0.159566H1.25761L2.87153 6.42428C3.09511 7.30305 3.25813 8.09857 3.3606 8.81084C3.48636 7.96444 3.67268 7.13655 3.91954 6.32715L5.75006 0.159566H7.00766L8.92901 6.38265C9.15258 7.09955 9.34122 7.90894 9.49493 8.81084C9.58343 8.15407 9.75111 7.35393 9.99797 6.41041L11.6049 0.159566H12.8625L10.1307 10.3024Z" fill="black"/>
<path d="M23.3286 5.21713C23.3286 6.84054 22.9141 8.11707 22.085 9.04672C21.2605 9.97637 20.1124 10.4412 18.6405 10.4412C17.1361 10.4412 15.9739 9.98562 15.1542 9.07447C14.339 8.1587 13.9315 6.86829 13.9315 5.20325C13.9315 3.55209 14.3414 2.27324 15.1611 1.36672C15.9809 0.455574 17.1454 0 18.6545 0C20.1217 0 21.2675 0.462511 22.092 1.38753C22.9164 2.31256 23.3286 3.58909 23.3286 5.21713ZM15.1891 5.21713C15.1891 6.59078 15.4825 7.63375 16.0694 8.34601C16.661 9.05366 17.518 9.40748 18.6405 9.40748C19.7724 9.40748 20.6271 9.05366 21.2046 8.34601C21.7822 7.63837 22.071 6.59541 22.071 5.21713C22.071 3.85272 21.7822 2.81901 21.2046 2.11599C20.6317 1.40835 19.7817 1.05453 18.6545 1.05453C17.5226 1.05453 16.661 1.41066 16.0694 2.12293C15.4825 2.83057 15.1891 3.86197 15.1891 5.21713Z" fill="black"/>
<path d="M33.5921 10.3024H32.2366L26.6543 1.78992H26.5984C26.6729 2.78894 26.7102 3.70471 26.7102 4.53723V10.3024H25.6133V0.159566H26.9547L32.5231 8.6374H32.579C32.5697 8.51252 32.5487 8.11245 32.5161 7.43718C32.4835 6.75729 32.4719 6.27165 32.4812 5.98027V0.159566H33.5921V10.3024Z" fill="black"/>
<path d="M44.5542 5.13387C44.5542 6.80817 44.0954 8.08932 43.1778 8.97734C42.2649 9.86074 40.9491 10.3024 39.2303 10.3024H36.4007V0.159566H39.5308C41.1191 0.159566 42.3534 0.596639 43.2337 1.47079C44.114 2.34493 44.5542 3.56596 44.5542 5.13387ZM43.2966 5.1755C43.2966 3.85272 42.9612 2.85601 42.2905 2.18537C41.6244 1.51472 40.6323 1.1794 39.3142 1.1794H37.5885V9.2826H39.0347C40.4507 9.2826 41.515 8.93803 42.2276 8.24889C42.9403 7.55512 43.2966 6.53066 43.2966 5.1755Z" fill="black"/>
<path d="M52.533 10.3024H46.8389V0.159566H52.533V1.20715H48.0266V4.4748H52.2605V5.51545H48.0266V9.24791H52.533V10.3024Z" fill="black"/>
<path d="M55.9914 6.08433V10.3024H54.8037V0.159566H57.6054C58.8583 0.159566 59.7829 0.39776 60.3791 0.874146C60.9799 1.35053 61.2804 2.06743 61.2804 3.02482C61.2804 4.36611 60.5957 5.27263 59.2263 5.74439L62 10.3024H60.5957L58.1224 6.08433H55.9914ZM55.9914 5.07144H57.6193C58.4577 5.07144 59.0726 4.90724 59.4638 4.57886C59.8551 4.24585 60.0507 3.74865 60.0507 3.08726C60.0507 2.41662 59.8504 1.9333 59.4499 1.63729C59.0539 1.34128 58.4158 1.19328 57.5355 1.19328H55.9914V5.07144Z" fill="black"/>
<path d="M20.5493 27.2686C20.5493 30.8073 19.6658 33.5271 17.8986 35.4281C16.1315 37.3291 13.5986 38.2795 10.3 38.2795C7.00135 38.2795 4.46846 37.3291 2.70133 35.4281C0.934206 33.5271 0.0506413 30.7976 0.0506413 27.2394C0.0506413 23.6812 0.934206 20.9662 2.70133 19.0945C4.47828 17.2131 7.02098 16.2723 10.3294 16.2723C13.6379 16.2723 16.1659 17.2179 17.9134 19.1091C19.6707 21.0004 20.5493 23.7202 20.5493 27.2686ZM4.83661 27.2686C4.83661 29.657 5.29312 31.4556 6.20614 32.6644C7.11916 33.8732 8.48377 34.4776 10.3 34.4776C13.9422 34.4776 15.7634 32.0746 15.7634 27.2686C15.7634 22.4529 13.9521 20.045 10.3294 20.045C8.51322 20.045 7.1437 20.6543 6.22086 21.8728C5.29803 23.0817 4.83661 24.8802 4.83661 27.2686Z" fill="black"/>
<path d="M44.111 37.9871H38.309L28.9432 21.8144H28.8107C28.9972 24.6707 29.0905 26.7081 29.0905 27.9266V37.9871H25.0113V16.6087H30.7692L40.1203 32.6205H40.2234C40.0761 29.8422 40.0025 27.8779 40.0025 26.7276V16.6087H44.111V37.9871Z" fill="black"/>
<path d="M61.9443 37.9871H49.545V16.6087H61.9443V20.3228H54.11V25.0167H61.3995V28.7309H54.11V34.2437H61.9443V37.9871Z" fill="black"/>
<path d="M3.74747 49.9327H3.17168V45.5235H0.628051V49.9327H0.0522612V45.0157H3.74747V49.9327Z" fill="black"/>
<path d="M8.22508 49.9327L7.60865 48.3688H5.62387L5.01421 49.9327H4.43165L6.38933 44.9955H6.87367L8.82119 49.9327H8.22508ZM7.42914 47.8543L6.85335 46.3307C6.77884 46.1379 6.70206 45.9014 6.62303 45.6211C6.57336 45.8363 6.50223 46.0729 6.40965 46.3307L5.82709 47.8543H7.42914Z" fill="black"/>
<path d="M12.6417 46.4484C12.6417 46.9462 12.4701 47.3296 12.1269 47.5987C11.7859 47.8655 11.2971 47.9989 10.6603 47.9989H10.0778V49.9327H9.50198V45.0157H10.7857C12.023 45.0157 12.6417 45.4933 12.6417 46.4484ZM10.0778 47.5079H10.596C11.1063 47.5079 11.4755 47.426 11.7035 47.2623C11.9316 47.0987 12.0456 46.8363 12.0456 46.4753C12.0456 46.1502 11.9384 45.9081 11.7239 45.7489C11.5093 45.5897 11.1752 45.5101 10.7213 45.5101H10.0778V47.5079Z" fill="black"/>
<path d="M13.6883 45.0157H14.2268V47.75C14.2268 48.2545 14.211 48.7108 14.1794 49.1188H14.2065L16.9839 45.0157H17.6138V49.9327H17.0719V47.2253C17.0719 46.7747 17.0911 46.3016 17.1295 45.8061H17.099L14.3183 49.9327H13.6883V45.0157Z" fill="black"/>
<path d="M22.5351 49.9327H21.8374L19.5478 47.4406V49.9327H18.972V45.0157H19.5478V47.3969L21.7798 45.0157H22.4403L20.2489 47.4036L22.5351 49.9327Z" fill="black"/>
<path d="M25.4107 49.9327L23.7308 45.574H23.7037C23.7353 45.9193 23.7511 46.3296 23.7511 46.8049V49.9327H23.2193V45.0157H24.0864L25.6546 49.0718H25.6817L27.2634 45.0157H28.1237V49.9327H27.5479V46.7646C27.5479 46.4013 27.5637 46.0067 27.5953 45.5807H27.5682L25.8747 49.9327H25.4107Z" fill="black"/>
<path d="M32.5979 49.9327L31.9815 48.3688H29.9967L29.387 49.9327H28.8045L30.7622 44.9955H31.2465L33.194 49.9327H32.5979ZM31.802 47.8543L31.2262 46.3307C31.1517 46.1379 31.0749 45.9014 30.9959 45.6211C30.9462 45.8363 30.8751 46.0729 30.7825 46.3307L30.1999 47.8543H31.802Z" fill="black"/>
<path d="M37.1704 49.9327H36.5167L35.1856 47.7702L33.8308 49.9327H33.2211L34.8672 47.3632L33.3329 45.0157H33.9696L35.1991 46.963L36.4388 45.0157H37.0518L35.5175 47.3431L37.1704 49.9327Z" fill="black"/>
<path d="M40.6386 49.9327H37.8782V45.0157H40.6386V45.5235H38.454V47.1076H40.5065V47.6121H38.454V49.4215H40.6386V49.9327Z" fill="black"/>
<path d="M44.8792 46.4484C44.8792 46.9462 44.7076 47.3296 44.3643 47.5987C44.0234 47.8655 43.5345 47.9989 42.8978 47.9989H42.3152V49.9327H41.7394V45.0157H43.0231C44.2605 45.0157 44.8792 45.4933 44.8792 46.4484ZM42.3152 47.5079H42.8334C43.3437 47.5079 43.7129 47.426 43.941 47.2623C44.169 47.0987 44.283 46.8363 44.283 46.4753C44.283 46.1502 44.1758 45.9081 43.9613 45.7489C43.7468 45.5897 43.4126 45.5101 42.9587 45.5101H42.3152V47.5079Z" fill="black"/>
<path d="M48.0392 45.4563C47.495 45.4563 47.0649 45.6368 46.7488 45.9978C46.4349 46.3565 46.278 46.8487 46.278 47.4742C46.278 48.1177 46.4293 48.6155 46.7318 48.9675C47.0367 49.3173 47.4702 49.4922 48.0325 49.4922C48.3779 49.4922 48.7719 49.4305 49.2145 49.3072V49.8083C48.8713 49.9361 48.4479 50 47.9444 50C47.2151 50 46.6517 49.7803 46.2543 49.3408C45.8591 48.9013 45.6616 48.2769 45.6616 47.4675C45.6616 46.9608 45.7564 46.5168 45.9461 46.1357C46.138 45.7545 46.4135 45.4608 46.7725 45.2545C47.1338 45.0482 47.5583 44.9451 48.046 44.9451C48.5653 44.9451 49.0192 45.0392 49.4076 45.2276L49.1637 45.7186C48.7889 45.5437 48.4141 45.4563 48.0392 45.4563Z" fill="black"/>
<path d="M53.8581 49.9327H53.1604L50.8708 47.4406V49.9327H50.295V45.0157H50.8708V47.3969L53.1028 45.0157H53.7632L51.5719 47.4036L53.8581 49.9327Z" fill="black"/>
<path d="M57.6549 49.9327L57.0385 48.3688H55.0537L54.444 49.9327H53.8615L55.8192 44.9955H56.3035L58.251 49.9327H57.6549ZM56.859 47.8543L56.2832 46.3307C56.2087 46.1379 56.1319 45.9014 56.0529 45.6211C56.0032 45.8363 55.9321 46.0729 55.8395 46.3307L55.2569 47.8543H56.859Z" fill="black"/>
<path d="M60.4018 47.8812L59.1045 49.9327H58.4238L59.8124 47.7836C59.4489 47.6693 59.1847 47.4966 59.0199 47.2657C58.855 47.0325 58.7726 46.7388 58.7726 46.3845C58.7726 45.9451 58.925 45.6076 59.2299 45.3722C59.5369 45.1345 60.001 45.0157 60.6219 45.0157H61.9835V49.9327H61.4077V47.8812H60.4018ZM61.4077 45.5101H60.6389C60.2256 45.5101 59.9118 45.5807 59.6973 45.722C59.4828 45.8632 59.3755 46.0931 59.3755 46.4114C59.3755 47.0639 59.8034 47.3901 60.6592 47.3901H61.4077V45.5101Z" fill="black"/>
</svg>
